<?xml version="1.0" encoding="utf-8"?>
<!-- Generator: Adobe Illustrator 19.0.0, SVG Export Plug-In . SVG Version: 6.00 Build 0)  -->
<svg version="1.1" id="Layer_1" xmlns="http://www.w3.org/2000/svg" xmlns:xlink="http://www.w3.org/1999/xlink" x="0px" y="0px"
	 viewBox="-464 484.4 126.4 32.6" style="enable-background:new -464 484.4 126.4 32.6;" xml:space="preserve">
<style type="text/css">
	.st0{fill:none;stroke:#FFFFFF;stroke-width:2;stroke-miterlimit:10;}
	.st1{fill:#FFFFFF;}
</style>
<title>idea-logo-2020-new-padding</title>
<g>
	<path class="st0" d="M-422.3,502.1c-0.8,7.8-7.7,13.5-15.5,12.8c-7.8-0.8-13.5-7.7-12.8-15.5c0.8-7.8,7.7-13.5,15.5-12.8
		C-427.3,487.4-421.6,494.3-422.3,502.1"/>
	<path class="st1" d="M-420,490.3c-2.9,0.5-5.6,1.3-8.3,2.3c-0.9-0.9-1.9-1.5-3-2.1c-4.1-2.1-9.3-1.4-12.8,1.6
		c-7.1-0.5-13.1-3.2-19.2-5.7c-0.4,2.1-0.4,3.9,0,5.9c0.2,1.4,1.8,1.5,2.4,1.7c0.2,1,0.2,2,0.4,3c0.3,2.7,3.6,2.4,5.4,2.5l0.6,2
		c1,2.4,4.3,1,6.2,1c0.2,1.1,0.6,2.3,0.9,3.4c-1.6,1.8-2.2,5.3-5.3,5.2c0.2,1.2,0.5,2.4,1,3.5c3.2,0,6.3-1.2,8.5-3.7
		c0.7,0.6,1.6,1,2.5,1.3c5,1.6,6.7-0.1,10.2,0.5l-0.1-0.1c-1.4-1.4,0.6-1.8,1.5-2.5c3.4-2.8,5-7.3,4-11.7L-420,490.3z M-431.2,492.3
		l1.2,0.9l-2.6,1.2L-431.2,492.3z M-431.8,492c-3.1,0.5-6.5,0.4-9.8,0.3C-438.8,490.4-434.7,490.5-431.8,492z M-462,491.9l-0.4-3.4
		c6.6,3.2,14.4,4.6,22.2,5.2c-0.2,0.5-0.5,0.9-0.8,1.3C-448,494.5-455.6,494.5-462,491.9z M-446.2,503.8l-0.4-1.5
		c0.4-0.1,0.9-0.2,1.4-0.2L-446.2,503.8z M-444.3,500.6c-2.7,0.6-5.5,1-8.4,0.9c-0.5-0.7-0.6-1.4-0.8-2.1c3.5-0.1,7-0.3,10.4-0.7
		L-444.3,500.6z M-458.9,497.4c-0.4-0.9-0.4-1.9-0.6-2.8c5.8,0.9,12.1,1.6,17.9,1.6l-0.6,1.2C-442.3,497.4-454.3,498.8-458.9,497.4z
		 M-442.1,509.4c3.4-4.8,5.2-11,11.1-14.1c-1.8,3.9-5.3,7.7-4.4,12.7l0.7,3C-437.3,511.5-440.1,510.8-442.1,509.4z M-432.4,502.6
		l-0.5-0.9c1.2-2.5,2.5-4.9,3.8-7.3l1.3-0.6L-432.4,502.6z M-432,503.2l5.2-9.8l1.3-0.4c-2,3.7-4.1,7.5-6,11.3L-432,503.2z
		 M-431.1,505.3c2.1-4.3,4.4-8.4,6.7-12.6l1.6-0.5l-6.1,10.6l-1.8,3.3L-431.1,505.3z M-430.7,509.4c0.6-3.2,2.7-5.9,4.3-8.7
		C-426.2,504.2-427.8,507.3-430.7,509.4z"/>
	<polygon class="st1" points="-401,490.3 -401,494.8 -412.3,494.8 -412.3,499.4 -402.1,499.4 -402.1,503.7 -412.3,503.7 
		-412.3,508.3 -400.6,508.3 -400.6,512.8 -417.3,512.8 -417.3,490.3 	"/>
	<polygon class="st1" points="-386.5,494.6 -386.5,512.8 -391.6,512.8 -391.6,494.6 -398,494.6 -398,490.3 -380.1,490.3 
		-380.1,494.6 	"/>
	<polygon class="st1" points="-360.1,490.3 -360.1,494.8 -371.4,494.8 -371.4,499.4 -361.3,499.4 -361.3,503.7 -371.4,503.7 
		-371.4,508.3 -359.8,508.3 -359.8,512.8 -376.4,512.8 -376.4,490.3 	"/>
	<path class="st1" d="M-340.5,492.3c1.6,1.3,2.4,3.4,2.4,6.2c0,2.8-0.8,4.8-2.4,6.1c-1.6,1.3-4.1,1.9-7.5,1.9h-3v6.3h-5.1v-22.5h8
		C-344.6,490.3-342.1,491-340.5,492.3 M-344.2,501.1c0.6-0.7,0.9-1.7,0.9-3c0-1.3-0.4-2.2-1.2-2.8c-0.8-0.5-2-0.8-3.7-0.8h-2.9v7.6
		h3.4C-345.9,502.2-344.8,501.8-344.2,501.1"/>
</g>
</svg>
