<?xml version="1.0" encoding="utf-8"?>
<!-- Generator: Adobe Illustrator 16.0.0, SVG Export Plug-In . SVG Version: 6.00 Build 0)  -->
<!DOCTYPE svg PUBLIC "-//W3C//DTD SVG 1.1//EN" "http://www.w3.org/Graphics/SVG/1.1/DTD/svg11.dtd">
<svg version="1.1" id="Layer_1" xmlns="http://www.w3.org/2000/svg" xmlns:xlink="http://www.w3.org/1999/xlink" x="0px" y="0px"
	 width="154px" height="154px" viewBox="95 -38.5 154 154" enable-background="new 95 -38.5 154 154" xml:space="preserve">
<title>NSF2020-logo-border</title>
<rect x="97" y="-36.5" fill="#000200" width="150" height="150"/>
<polygon fill="#FFFFFF" points="173.36,26.23 179.09,26.23 205.55,26.23 175.27,-3.5 173.36,-5.14 173.36,-13.32 179.09,-13.32 
	218.37,-13.32 224.09,-13.32 224.09,-2.13 218.37,-2.13 191.91,-2.13 222.18,27.59 224.09,29.23 224.09,37.41 218.37,37.41 
	179.09,37.41 173.36,37.41 "/>
<polygon fill="#FFFFFF" points="119.91,31.68 119.91,-7.32 119.91,-13.32 128.09,-13.32 129.73,-11.41 159.46,18.86 159.46,-7.32 
	159.46,-13.32 170.64,-13.32 170.64,-7.32 170.64,31.68 170.64,37.41 162.46,37.41 160.82,35.5 131.09,5.23 131.09,31.68 
	131.09,37.41 119.91,37.41 "/>
<polygon fill="#FFFFFF" points="170.64,50.77 170.64,39.59 131.09,39.59 119.91,39.59 119.91,90.32 131.09,90.32 131.09,70.41 
	159.46,70.41 159.46,59.23 131.09,59.23 131.09,50.77 "/>
<g id="XMLID_9_">
	<path id="XMLID_2_" fill="#FFFFFF" d="M173.36,39.59v50.73h50.73V39.59H173.36z M193.82,79.95
		C194.09,79.95,194.09,79.95,193.82,79.95l0.27,1.91c0,0,0,0.27-0.27,0.27h-7.36c0,0-0.27,0-0.27-0.27v-1.64v-0.27l4.36-5.18
		c0.55-0.55,0.82-1.09,0.82-1.64c0-0.82-0.55-1.37-1.36-1.37c-0.82,0-1.36,0.55-1.36,1.37c0,0,0,0.27-0.27,0.27l-1.91-0.27
		c0,0-0.27,0-0.27-0.28c0-0.82,0.54-1.63,1.09-2.18c0.82-0.55,1.64-0.82,2.73-0.82c1.09,0,2.18,0.27,2.73,1.09
		c0.82,0.55,1.09,1.64,1.09,2.45c0,1.09-0.54,1.91-1.36,3l-3.28,3.82l0,0h4.64V79.95z M193.82,58.14
		C194.09,58.14,194.09,58.14,193.82,58.14l0.27,1.91c0,0,0,0.27-0.27,0.27h-7.36c0,0-0.27,0-0.27-0.27v-1.63v-0.27l4.36-5.18
		c0.55-0.54,0.82-1.09,0.82-1.64c0-0.82-0.55-1.36-1.36-1.36c-0.82,0-1.36,0.55-1.36,1.36c0,0,0,0.27-0.27,0.27l-1.91-0.27
		c0,0-0.27,0-0.27-0.27c0-0.82,0.54-1.64,1.09-2.18c0.82-0.55,1.64-0.82,2.73-0.82c1.09,0,2.18,0.27,2.73,1.09
		c0.82,0.55,1.09,1.64,1.09,2.45c0,1.09-0.54,1.91-1.36,3l-3.28,3.82l0,0h4.64V58.14z M209.36,81.59
		C209.36,81.86,209.36,81.86,209.36,81.59l-2.45,0.27c0,0-0.27,0-0.27-0.27v-9.27l0,0l-1.91,1.36h-0.27V71.5v-0.27l2.18-1.37h0.27
		h1.91c0,0,0.27,0,0.27,0.27v11.45H209.36z M210.73,57.86c-0.55,1.63-1.91,2.45-3.82,2.45s-3.27-0.82-3.82-2.45
		c-0.27-0.55-0.27-1.91-0.27-3.82c0-1.91,0-3.27,0.27-3.82c0.55-1.63,1.91-2.45,3.82-2.45s3.27,0.82,3.82,2.45
		c0.27,0.55,0.27,1.91,0.27,3.82C211,56.23,211,57.32,210.73,57.86z"/>
	<path id="XMLID_8_" fill="#FFFFFF" d="M206.91,49.96c-0.55,0-1.09,0.27-1.36,0.82c0,0.27-0.27,1.36-0.27,3.27c0,1.91,0,3,0.27,3.27
		c0.27,0.55,0.54,0.82,1.36,0.82c0.82,0,1.09-0.27,1.36-0.82c0-0.27,0.27-1.36,0.27-3.27c0-1.91,0-3-0.27-3.27
		C208,50.23,207.73,49.96,206.91,49.96z"/>
</g>
</svg>
