<?xml version="1.0" encoding="utf-8"?>
<!-- Generator: Adobe Illustrator 16.0.0, SVG Export Plug-In . SVG Version: 6.00 Build 0)  -->
<!DOCTYPE svg PUBLIC "-//W3C//DTD SVG 1.1//EN" "http://www.w3.org/Graphics/SVG/1.1/DTD/svg11.dtd">
<svg version="1.1" id="Layer_1" xmlns="http://www.w3.org/2000/svg" xmlns:xlink="http://www.w3.org/1999/xlink" x="0px" y="0px"
	 width="154px" height="87px" viewBox="48 27.28 154 87" enable-background="new 48 27.28 154 87" xml:space="preserve">
<g>
	<path fill="#FFFFFF" d="M99.3,90.74c-1.27,0-2.5-0.5-3.4-1.41l-5.13-5.13c-1.88-1.86-1.89-4.89-0.03-6.76
		c0.01-0.01,0.02-0.02,0.03-0.03l5.13-5.14c1.88-1.87,4.92-1.87,6.8,0l5.13,5.14c1.87,1.86,1.89,4.89,0.03,6.76
		c-0.01,0.01-0.02,0.02-0.03,0.03l-5.13,5.13C101.8,90.23,100.58,90.74,99.3,90.74 M99.3,74.23c-0.38,0-0.75,0.15-1.02,0.42
		l-5.13,5.13c-0.56,0.57-0.56,1.48,0,2.04l5.13,5.13c0.56,0.56,1.47,0.57,2.03,0.01c0,0,0.01-0.01,0.01-0.01l5.13-5.13
		c0.56-0.57,0.56-1.48,0-2.04l-5.12-5.13C100.07,74.37,99.69,74.22,99.3,74.23"/>
	<path fill="#FFFFFF" d="M99.63,68.86c-1.87,0-3.5-1.15-4.38-3.1L90.1,54.15c-0.38-0.85,0.01-1.84,0.85-2.22
		c0.85-0.38,1.84,0.01,2.22,0.85l5.16,11.64c0.32,0.71,0.78,1.11,1.31,1.11l0,0c0.63-0.06,1.16-0.49,1.37-1.09l4.95-11.66
		c0.32-0.87,1.29-1.31,2.16-0.99c0.87,0.32,1.31,1.29,0.99,2.16c-0.02,0.05-0.04,0.09-0.06,0.13l-4.97,11.64
		c-0.73,1.83-2.47,3.06-4.44,3.13H99.63z"/>
	<path fill="#FFFFFF" d="M86.55,90.74c-0.45,0-0.88-0.18-1.2-0.51l-10-10.2c-1.51-1.52-2.25-3.02-2.26-4.58
		c0.07-1.48,0.74-2.85,1.86-3.82c1.84-1.68,3.9-3.58,4.18-3.94c0.08-0.1,0.16-0.19,0.24-0.27c0.35-0.4,0.39-0.44,0.39-0.85
		c-0.05-0.35-0.21-0.68-0.45-0.94l-0.08-0.08l-6.57-7.03c-1.14-1.19-1.48-2.95-0.85-4.48c0.7-1.49,2.23-2.42,3.87-2.34h9.63
		c0.93,0,1.68,0.75,1.68,1.68c0,0.93-0.75,1.68-1.68,1.68l0,0h-9.63c-0.19,0-0.66,0.04-0.78,0.32c-0.09,0.31,0.01,0.64,0.26,0.85
		l6.51,6.99c0.9,0.88,1.44,2.08,1.49,3.34c0.03,1.15-0.41,2.27-1.23,3.08l-0.18,0.21c-0.47,0.57-3.32,3.18-4.52,4.28l-0.06,0.05
		c-0.37,0.33-0.61,0.78-0.68,1.27c0,0.6,0.43,1.37,1.28,2.22l10.01,10.22c0.65,0.67,0.63,1.74-0.04,2.38
		c-0.31,0.3-0.72,0.47-1.16,0.47"/>
	<path fill="#FFFFFF" d="M163.18,90.92c-0.93,0-1.68-0.75-1.68-1.68c0-0.48,0.2-0.93,0.56-1.25c4.97-4.48,12.55-11.36,13.15-11.95
		c0.1-0.12,0.22-0.23,0.34-0.35c1.11-0.98,1.7-2.42,1.59-3.9V57.5c0-3.46,2-5.65,5.21-5.71h8.02c1.38,0.04,2.69,0.6,3.67,1.57
		c1.05,1.13,1.58,2.65,1.48,4.18c-0.07,3.94,0,30.28,0,30.54c0,0.93-0.75,1.68-1.67,1.68l0,0l0,0c-0.92,0-1.68-0.74-1.68-1.67
		c0,0,0,0,0-0.01c0-1.09-0.07-26.64,0-30.61c0.07-0.63-0.12-1.27-0.53-1.76c-0.35-0.32-0.8-0.52-1.28-0.56h-7.96
		c-0.6,0-1.9,0.06-1.9,2.36v14.27c0.1,2.37-0.86,4.67-2.6,6.28l-0.18,0.18c-0.47,0.55-9.56,8.73-13.42,12.22
		c-0.31,0.28-0.71,0.44-1.12,0.44"/>
	<path fill="#FFFFFF" d="M117.69,90.73c-0.65,0-1.29-0.12-1.89-0.36c-1.95-0.78-3.25-2.63-3.32-4.73V53.37
		c0-0.93,0.75-1.68,1.68-1.68s1.68,0.75,1.68,1.68v32.17c0.02,0.75,0.49,1.42,1.2,1.7c0.8,0.28,1.7,0.05,2.25-0.6l13.15-13.52
		c0.7-0.61,1.76-0.53,2.37,0.17c0.54,0.62,0.55,1.54,0.02,2.17l-13.2,13.55c-1.04,1.07-2.47,1.69-3.97,1.71"/>
	<path fill="#FFFFFF" d="M124.1,74.55c-0.49,0-0.97-0.09-1.43-0.28c-1.48-0.59-2.46-2-2.5-3.59V53.36c0-0.93,0.75-1.68,1.68-1.68
		c0.93,0,1.68,0.75,1.68,1.68v17.25c0,0.24,0.15,0.46,0.38,0.54c0.29,0.08,0.61-0.03,0.79-0.27l6.32-6.34l0.05-0.03
		c0.51-0.49,0.81-1.17,0.82-1.88v-9.28c0-0.93,0.75-1.68,1.68-1.68c0.93,0,1.68,0.75,1.68,1.68v9.29c-0.01,1.68-0.73,3.28-1.98,4.41
		l-6.19,6.21c-0.79,0.8-1.86,1.26-2.99,1.27"/>
	<path fill="#FFFFFF" d="M153.26,51.7H139.3c-0.93,0-1.68,0.75-1.68,1.68c0,0.93,0.75,1.68,1.68,1.68c0,0,0,0,0,0h5.3v12.06
		c0,0.93,0.75,1.68,1.68,1.68c0.93,0,1.68-0.75,1.68-1.68V55.06h5.31c0.93,0,1.68-0.75,1.68-1.68
		C154.94,52.45,154.19,51.7,153.26,51.7"/>
	<path fill="#FFFFFF" d="M146.28,90.47c-0.93,0-1.68-0.75-1.68-1.68V78.26c0-0.93,0.75-1.68,1.68-1.68c0.93,0,1.68,0.75,1.68,1.68
		v10.56c0,0.93-0.75,1.68-1.68,1.68"/>
	<path fill="#E32285" d="M148.37,72.58c0,1.16-0.94,2.09-2.09,2.09c-1.16,0-2.09-0.94-2.09-2.09c0-1.16,0.94-2.09,2.09-2.09
		C147.43,70.49,148.37,71.43,148.37,72.58"/>
	<path fill="#FFFFFF" d="M160.67,81.99c-2.58,0-4.52-2.15-4.52-5V57.64c-0.06-1.56,0.48-3.08,1.51-4.25
		c1.11-1.13,2.66-1.73,4.24-1.66h7.1c2.16,0,5.38,1.58,5.38,5.94v10.76c-0.02,2.02-0.89,3.95-2.39,5.3L164,80.77l-0.06,0.05
		C163,81.55,161.86,81.96,160.67,81.99 M161.9,55.09c-0.65-0.06-1.31,0.16-1.79,0.6c-0.4,0.51-0.61,1.15-0.6,1.79v19.51
		c0,0.75,0.3,1.64,1.16,1.64c0.44-0.03,0.85-0.2,1.2-0.47l7.96-7.03c0.75-0.71,1.18-1.69,1.19-2.73V57.64
		c0-2.46-1.68-2.58-2.01-2.58L161.9,55.09z"/>
	<path fill="#FFFFFF" d="M78.38,91.39c-0.45,0-0.88-0.18-1.2-0.5L63.36,76.86c-1.49-1.49-2.23-2.99-2.23-4.52
		c0.07-1.46,0.74-2.83,1.85-3.78c1.79-1.65,3.85-3.54,4.14-3.87l0.23-0.27c0.35-0.39,0.38-0.42,0.38-0.82
		c-0.04-0.34-0.2-0.66-0.44-0.91l-0.08-0.07l-6.53-7.02l-0.04-0.05c-0.4-0.57-1.13-0.81-1.79-0.6c-0.54,0.22-1.03,0.65-1.03,2.27
		v31.86c0,0.93-0.75,1.68-1.68,1.68c-0.93,0-1.68-0.75-1.68-1.68V57.23c0-2.73,1.05-4.53,3.12-5.38c2.64-1.08,4.82,0.52,5.67,1.59
		l6.38,6.82c0.89,0.88,1.41,2.06,1.45,3.3c0.03,1.14-0.4,2.24-1.2,3.05l-0.18,0.2c-0.47,0.56-3.28,3.14-4.46,4.22l-0.06,0.05
		c-0.36,0.31-0.59,0.73-0.67,1.19c0,0.6,0.42,1.33,1.26,2.16l13.81,14.1c0.65,0.66,0.64,1.72-0.02,2.38
		C79.24,91.22,78.82,91.39,78.38,91.39"/>
	<path fill="#E32285" d="M117.97,47.19H51.3c-0.56,0.04-1.04-0.37-1.08-0.93c-0.04-0.56,0.37-1.04,0.93-1.08c0.05,0,0.1,0,0.16,0
		h66.63c0.57-0.01,1.07-0.36,1.27-0.89c0.21-0.59,0.04-1.26-0.44-1.67L112.13,36c-0.4-0.39-0.4-1.03-0.01-1.43
		c0.39-0.4,1.03-0.4,1.43-0.01c0,0,0,0,0.01,0.01l6.66,6.62c1.03,0.98,1.38,2.49,0.89,3.83c-0.51,1.27-1.72,2.12-3.08,2.17H117.97z"
		/>
	<path fill="#E32285" d="M198.7,47.19H132c-1.37-0.05-2.58-0.9-3.08-2.17c-0.5-1.34-0.16-2.85,0.88-3.83l6.63-6.62
		c0.37-0.42,1.01-0.46,1.43-0.09c0.42,0.37,0.46,1.01,0.09,1.43c-0.03,0.03-0.06,0.06-0.09,0.09l-6.63,6.62
		c-0.47,0.41-0.65,1.07-0.44,1.67c0.21,0.53,0.71,0.88,1.27,0.9h66.63c0.55-0.04,1.04,0.37,1.08,0.93c0.04,0.56-0.37,1.04-0.93,1.08
		c-0.05,0-0.1,0-0.15,0"/>
	<path fill="#E32285" d="M198.7,97.04H51.3c-0.56,0.04-1.04-0.38-1.08-0.93c-0.04-0.56,0.37-1.04,0.93-1.08c0.05,0,0.1,0,0.16,0
		h147.4c0.55-0.04,1.04,0.37,1.08,0.93c0.04,0.56-0.37,1.04-0.93,1.08C198.8,97.04,198.75,97.04,198.7,97.04"/>
	<path fill="#48DEA1" d="M61.9,106.35h-1.74v1.11h1.48c0.11-0.01,0.21,0.03,0.3,0.1c0.13,0.13,0.13,0.34,0,0.47c0,0,0,0,0,0.01
		c-0.08,0.06-0.19,0.1-0.3,0.09h-1.48v1.42c0.01,0.15-0.04,0.29-0.13,0.41c-0.17,0.18-0.46,0.18-0.63,0.01c0,0,0,0,0-0.01
		c-0.09-0.12-0.13-0.26-0.12-0.4v-3.34c0-0.1,0.01-0.21,0.05-0.31c0.04-0.08,0.1-0.14,0.18-0.17c0.1-0.04,0.2-0.06,0.31-0.05h2.09
		c0.11-0.01,0.23,0.02,0.32,0.09c0.07,0.06,0.11,0.15,0.1,0.24c0.01,0.1-0.03,0.19-0.1,0.25C62.13,106.32,62.02,106.36,61.9,106.35"
		/>
	<path fill="#48DEA1" d="M80.51,106.35h-1.99v1.06h1.83c0.11-0.01,0.21,0.02,0.3,0.09c0.07,0.06,0.1,0.15,0.1,0.24
		c0,0.09-0.03,0.18-0.1,0.24c-0.09,0.07-0.19,0.1-0.31,0.09h-1.83v1.23h2.06c0.11-0.01,0.22,0.03,0.31,0.09
		c0.07,0.07,0.11,0.16,0.11,0.26c0,0.1-0.04,0.18-0.11,0.25c-0.09,0.07-0.2,0.1-0.31,0.09h-2.39c-0.15,0.01-0.3-0.03-0.41-0.13
		c-0.1-0.11-0.15-0.26-0.13-0.41v-3.25c0-0.11,0.02-0.21,0.06-0.31c0.04-0.08,0.1-0.14,0.18-0.17c0.1-0.04,0.2-0.06,0.31-0.05h2.34
		c0.11-0.01,0.23,0.02,0.32,0.09c0.07,0.06,0.1,0.15,0.1,0.24c0,0.1-0.03,0.19-0.1,0.25c-0.09,0.06-0.2,0.1-0.32,0.09"/>
	<path fill="#48DEA1" d="M99.67,108.7c0,0.25-0.07,0.5-0.2,0.71c-0.15,0.22-0.35,0.39-0.6,0.49c-0.29,0.12-0.61,0.19-0.93,0.18
		c-0.37,0.01-0.74-0.07-1.07-0.25c-0.2-0.11-0.36-0.27-0.48-0.47c-0.11-0.17-0.18-0.36-0.19-0.56c0-0.1,0.04-0.19,0.11-0.26
		c0.07-0.08,0.18-0.12,0.28-0.11c0.09,0,0.17,0.03,0.24,0.09c0.08,0.07,0.13,0.17,0.17,0.26c0.05,0.12,0.11,0.24,0.18,0.35
		c0.07,0.1,0.17,0.18,0.27,0.23c0.14,0.07,0.3,0.1,0.46,0.09c0.23,0.01,0.45-0.05,0.64-0.18c0.15-0.1,0.24-0.27,0.25-0.45
		c0.01-0.13-0.04-0.26-0.13-0.35c-0.1-0.09-0.22-0.17-0.35-0.2c-0.18-0.06-0.37-0.11-0.56-0.15c-0.27-0.06-0.53-0.15-0.78-0.26
		c-0.2-0.08-0.38-0.22-0.51-0.4c-0.12-0.19-0.18-0.41-0.16-0.64c0-0.23,0.07-0.45,0.2-0.63c0.15-0.2,0.36-0.35,0.6-0.42
		c0.28-0.11,0.58-0.16,0.88-0.15c0.24-0.01,0.47,0.03,0.69,0.09c0.18,0.06,0.34,0.15,0.49,0.26c0.11,0.1,0.21,0.21,0.28,0.35
		c0.06,0.11,0.09,0.23,0.09,0.35c0,0.1-0.04,0.21-0.11,0.28c-0.07,0.08-0.17,0.13-0.27,0.12c-0.08,0.01-0.17-0.02-0.23-0.08
		c-0.08-0.07-0.16-0.15-0.21-0.24c-0.07-0.15-0.17-0.28-0.29-0.38c-0.16-0.1-0.35-0.15-0.54-0.14c-0.2-0.01-0.39,0.04-0.56,0.15
		c-0.13,0.08-0.2,0.21-0.21,0.36c0,0.08,0.02,0.16,0.07,0.22c0.05,0.07,0.12,0.13,0.2,0.17c0.08,0.04,0.17,0.08,0.26,0.1
		c0.08,0.03,0.22,0.07,0.42,0.11c0.23,0.05,0.45,0.12,0.67,0.19c0.18,0.06,0.35,0.14,0.51,0.25c0.14,0.09,0.25,0.22,0.33,0.37
		c0.09,0.17,0.13,0.36,0.12,0.56"/>
	<path fill="#48DEA1" d="M117.91,106.39h-0.96v3.14c0.01,0.15-0.04,0.29-0.13,0.41c-0.08,0.08-0.19,0.13-0.31,0.13
		c-0.12,0-0.24-0.05-0.32-0.14c-0.09-0.11-0.14-0.26-0.13-0.4v-3.14h-0.96c-0.12,0.01-0.24-0.02-0.34-0.09
		c-0.07-0.07-0.11-0.17-0.11-0.26c-0.01-0.1,0.04-0.2,0.11-0.27c0.1-0.07,0.22-0.1,0.33-0.09h2.81c0.12-0.01,0.25,0.03,0.35,0.1
		c0.07,0.07,0.11,0.16,0.11,0.26c0,0.1-0.04,0.2-0.11,0.26C118.15,106.37,118.03,106.41,117.91,106.39"/>
	<path fill="#48DEA1" d="M133.57,109.54v-3.39c-0.01-0.14,0.03-0.28,0.12-0.4c0.08-0.09,0.2-0.13,0.32-0.13
		c0.12-0.01,0.24,0.04,0.32,0.13c0.09,0.11,0.14,0.26,0.13,0.4v3.41c0.01,0.15-0.03,0.29-0.13,0.4c-0.08,0.09-0.2,0.14-0.32,0.14
		c-0.12,0-0.23-0.05-0.31-0.14c-0.09-0.11-0.14-0.26-0.12-0.4"/>
	<path fill="#48DEA1" d="M150.74,106.15l0.99,2.91l0.99-2.92c0.05-0.16,0.1-0.26,0.12-0.32c0.03-0.07,0.07-0.12,0.13-0.16
		c0.07-0.05,0.16-0.08,0.25-0.07c0.07,0,0.14,0.02,0.21,0.05c0.06,0.04,0.12,0.09,0.16,0.15c0.03,0.06,0.05,0.12,0.05,0.19
		c0.01,0.05,0.01,0.1,0,0.14c0,0.05-0.03,0.1-0.04,0.14c-0.02,0.05-0.04,0.1-0.05,0.16l-1.06,2.83l-0.11,0.31
		c-0.04,0.09-0.08,0.17-0.13,0.25c-0.05,0.08-0.12,0.14-0.2,0.19c-0.09,0.05-0.19,0.07-0.3,0.07c-0.11,0-0.21-0.02-0.31-0.07
		c-0.08-0.04-0.15-0.11-0.2-0.19c-0.06-0.08-0.1-0.17-0.13-0.26c-0.04-0.1-0.08-0.2-0.11-0.31l-1.04-2.81
		c-0.02-0.05-0.04-0.1-0.06-0.15c0-0.05,0-0.1-0.05-0.16c0-0.05,0-0.1,0-0.15c0-0.1,0.05-0.2,0.13-0.28
		c0.08-0.08,0.19-0.12,0.3-0.12c0.12-0.01,0.25,0.04,0.32,0.14c0.08,0.14,0.14,0.28,0.19,0.44"/>
	<path fill="#48DEA1" d="M171.43,109.51l-0.21-0.54h-1.79l-0.21,0.56c-0.05,0.15-0.12,0.3-0.21,0.44c-0.07,0.08-0.18,0.12-0.28,0.11
		c-0.11,0-0.22-0.05-0.3-0.13c-0.08-0.07-0.13-0.17-0.13-0.28c0-0.06,0.01-0.12,0.03-0.18c0-0.07,0.05-0.15,0.1-0.26l1.12-2.81
		l0.12-0.29c0.03-0.1,0.08-0.19,0.14-0.28c0.05-0.08,0.12-0.14,0.2-0.19c0.09-0.05,0.2-0.07,0.31-0.07c0.11,0,0.21,0.02,0.31,0.07
		c0.08,0.04,0.15,0.11,0.2,0.18c0.05,0.08,0.09,0.16,0.13,0.24c0.03,0.08,0.08,0.19,0.13,0.33l1.14,2.79
		c0.07,0.15,0.12,0.3,0.13,0.47c0,0.1-0.05,0.2-0.13,0.28c-0.08,0.08-0.19,0.13-0.3,0.13c-0.06,0-0.12-0.01-0.18-0.04
		c-0.05-0.03-0.09-0.06-0.13-0.1c-0.05-0.06-0.08-0.13-0.11-0.2c-0.04-0.09-0.07-0.16-0.1-0.23 M169.66,108.31h1.3l-0.66-1.79
		L169.66,108.31z"/>
	<path fill="#48DEA1" d="M188.54,106.15v3.15h1.79c0.12-0.01,0.23,0.03,0.33,0.1c0.08,0.07,0.12,0.16,0.11,0.26
		c0,0.1-0.04,0.19-0.11,0.26c-0.09,0.07-0.21,0.1-0.33,0.09h-2.14c-0.25,0.05-0.49-0.12-0.54-0.37c-0.01-0.06-0.01-0.11,0-0.17
		v-3.33c-0.01-0.14,0.03-0.28,0.12-0.4c0.08-0.09,0.2-0.14,0.32-0.13c0.12-0.01,0.24,0.04,0.32,0.13
		C188.51,105.86,188.55,106,188.54,106.15"/>
	<path fill="#FFDD18" d="M111.9,42.39H59.04c-0.43-0.04-0.76-0.42-0.72-0.85c0.03-0.38,0.34-0.68,0.72-0.72h52.86
		c0.43,0.04,0.76,0.42,0.72,0.85C112.58,42.05,112.28,42.36,111.9,42.39"/>
	<path fill="#FFDD18" d="M190.96,42.39H138.1c-0.43-0.04-0.76-0.42-0.72-0.85c0.03-0.38,0.33-0.68,0.72-0.72h52.86
		c0.43,0.04,0.75,0.42,0.72,0.85C191.64,42.05,191.34,42.36,190.96,42.39"/>
	<path fill="#FFDD18" d="M190.96,101.74H59.04c-0.43-0.04-0.76-0.42-0.72-0.85c0.03-0.38,0.34-0.68,0.72-0.72h131.92
		c0.43-0.04,0.82,0.28,0.86,0.72c0.04,0.43-0.28,0.82-0.72,0.85C191.05,101.74,191,101.74,190.96,101.74"/>
	<path fill="#E32285" d="M125,40c-0.81,0-1.58-0.32-2.15-0.89l-3.34-3.34c-1.18-1.19-1.18-3.11,0-4.29l3.34-3.33
		c1.18-1.19,3.11-1.19,4.29,0c0,0,0,0,0,0l3.33,3.33c1.18,1.19,1.18,3.11,0,4.29l-3.33,3.34C126.58,39.68,125.81,40,125,40
		 M125,29.27c-0.27,0-0.53,0.11-0.72,0.3l-3.33,3.33c-0.4,0.4-0.4,1.05,0,1.44l0,0l3.33,3.33c0.19,0.2,0.45,0.32,0.72,0.33
		c0.27,0,0.53-0.11,0.72-0.3l3.34-3.33c0.4-0.4,0.4-1.05,0-1.45c0,0,0,0,0,0l-3.34-3.33c-0.19-0.19-0.45-0.3-0.72-0.3"/>
	<path fill="#48DEA1" d="M123.13,33.36l1.61-1.61c0.15-0.15,0.39-0.15,0.54,0l1.61,1.61c0.15,0.15,0.15,0.39,0,0.54l-1.61,1.61
		c-0.15,0.15-0.39,0.15-0.54,0l-1.61-1.61C122.98,33.75,122.98,33.51,123.13,33.36z"/>
</g>
</svg>
