<svg xmlns="http://www.w3.org/2000/svg" width="100" height="33.61" viewBox="0 0 100 33.61"><defs><style>.a{fill:#fff;}</style></defs><title>RTS_logo_inverted_new</title><path class="a" d="M79.67,13A12.4,12.4,0,0,1,91,14c.7-3.4,1.57-6.77,2.3-10.17A24.11,24.11,0,0,0,80.8,2.53h0C75.91,3.23,71,5.18,67.66,9c.48-2.1,1-4.18,1.58-6.27q-13.78,0-27.57,0c-.36,1.73-.78,3.43-1.15,5.14-1.61-3.4-5.5-5.08-9.1-5.14-5.53,0-11.06,0-16.6,0Q10.76,17,6.67,31.25c4.25,0,8.5,0,12.76,0,.65-2.63,1.43-5.24,2.09-7.87,2.61,0,5.21-.07,7.82,0a12.35,12.35,0,0,0,9.49-3.9A10.47,10.47,0,0,0,41.39,12c1.74,0,3.46,0,5.2,0q-2.46,9.67-5,19.32c4.33,0,8.65,0,13,0,1.55-6.44,3-12.9,4.61-19.32,2,0,4,0,6,0a14.28,14.28,0,0,0-.35,13.55c1.84,3.42,5.67,5.18,9.37,5.64a31.41,31.41,0,0,0,12.72-1.09c1-3,1.55-6.19,2.39-9.26a24.19,24.19,0,0,1-9,1.23c-1.48-.16-3.15-.79-3.71-2.3A5.62,5.62,0,0,1,79.67,13ZM29.89,15.42c-1.77,1.62-4.35,1-6.52,1.08.25-1.27.74-2.46,1-3.73a14,14,0,0,0,.83-3.31c2,0,4.51-.66,5.92,1.21A4.73,4.73,0,0,1,29.89,15.42Z"/></svg>