<svg xmlns="http://www.w3.org/2000/svg" width="402" height="120" viewBox="0 0 402 120"><defs><style>.a{fill:#fff;}</style></defs><title>Serbia-Creates-logo</title><path class="a" d="M13.17,37.32A9.22,9.22,0,0,0,15.5,44a8.12,8.12,0,0,0,6.09,2.41,7.39,7.39,0,0,0,4.92-1.69,5.58,5.58,0,0,0,2-4.48,5.11,5.11,0,0,0-.64-2.66,6.41,6.41,0,0,0-1.73-1.92,12.21,12.21,0,0,0-2.59-1.47c-1-.42-2.08-.86-3.23-1.31q-3.6-1.35-6.87-2.7a24.09,24.09,0,0,1-5.68-3.27,14.51,14.51,0,0,1-3.83-4.63A14.2,14.2,0,0,1,2.5,15.61,13,13,0,0,1,4,9.22a14.45,14.45,0,0,1,4.1-4.66A18.23,18.23,0,0,1,14,1.74,25.79,25.79,0,0,1,21,.8a22.68,22.68,0,0,1,8.19,1.36A16.52,16.52,0,0,1,35,5.84a15.22,15.22,0,0,1,3.49,5.33,17.51,17.51,0,0,1,1.17,6.39H27.53A8.47,8.47,0,0,0,25.84,12,6,6,0,0,0,21,10a7.51,7.51,0,0,0-4.51,1.35,4.69,4.69,0,0,0-1.88,4.06,4.92,4.92,0,0,0,2.07,4.17,20.46,20.46,0,0,0,5.45,2.74c2.15.76,4.33,1.57,6.53,2.45A26.37,26.37,0,0,1,34.59,28a16.4,16.4,0,0,1,4.32,4.66,12.4,12.4,0,0,1,1.69,6.65,16.89,16.89,0,0,1-1.47,7.21A14.74,14.74,0,0,1,35,51.79,18,18,0,0,1,28.8,55a27.65,27.65,0,0,1-8,1.09A24.1,24.1,0,0,1,13,54.87a18,18,0,0,1-6.32-3.64,16.85,16.85,0,0,1-4.17-5.9,20.15,20.15,0,0,1-1.5-8Z"/><polygon class="a" points="60.89 11.91 60.89 23.86 80.8 23.86 80.8 33.41 60.89 33.41 60.89 44.98 80.8 44.98 80.8 54.76 48.72 54.76 48.72 2.14 80.8 2.14 80.8 11.91 60.89 11.91"/><path class="a" d="M90.42,2.14h22.09a19.45,19.45,0,0,1,7.89,1.54,18.89,18.89,0,0,1,6,4.13,18,18,0,0,1,3.87,6.05,19.9,19.9,0,0,1,1.35,7.29,19.17,19.17,0,0,1-2.74,10.11,17.39,17.39,0,0,1-7.7,6.88l10.52,16.61H117.62L108.3,40.17h-5.71V54.75H90.42Zm20.51,28.11a8,8,0,0,0,3.46-.75,8.34,8.34,0,0,0,2.67-2,9.07,9.07,0,0,0,1.69-2.9,10.25,10.25,0,0,0,0-6.91,9.18,9.18,0,0,0-1.69-2.9,8.34,8.34,0,0,0-2.67-2,8,8,0,0,0-3.46-.75h-8.34V30.25Z"/><path class="a" d="M139.26,2.14h21.79a22.21,22.21,0,0,1,8.76,1.46A14.24,14.24,0,0,1,175,7.21a11.45,11.45,0,0,1,2.48,4.63,18,18,0,0,1,.64,4.5,11.61,11.61,0,0,1-.83,4.48,12,12,0,0,1-2.18,3.49,12.58,12.58,0,0,1-3,2.45,12.08,12.08,0,0,1-3.2,1.31,6.9,6.9,0,0,1,2.93.79,11.91,11.91,0,0,1,5.68,6,12.68,12.68,0,0,1,1,5.19,18.28,18.28,0,0,1-.68,4.59,12.55,12.55,0,0,1-2.55,4.81,14.51,14.51,0,0,1-5.26,3.79,21.32,21.32,0,0,1-8.79,1.54h-22Zm19.39,21.42a9.31,9.31,0,0,0,3.64-.6,6.06,6.06,0,0,0,2.22-1.54,5.15,5.15,0,0,0,1.13-2.07,8.18,8.18,0,0,0,.3-2.1,7.94,7.94,0,0,0-.27-2,4.87,4.87,0,0,0-1-2,6,6,0,0,0-2.21-1.58,9.45,9.45,0,0,0-3.76-.64h-7.29V23.56Zm-7.29,9V45.43H159a9.27,9.27,0,0,0,3.64-.6,6.06,6.06,0,0,0,2.22-1.54,5,5,0,0,0,1.13-2.07,8.7,8.7,0,0,0,.3-2.25,8,8,0,0,0-.3-2,5.83,5.83,0,0,0-1.09-2.11,6.38,6.38,0,0,0-2.22-1.65,8.43,8.43,0,0,0-3.61-.67Z"/><rect class="a" x="187.13" y="2.14" width="12.32" height="52.62"/><path class="a" d="M240.55,54.75l-2-6.38H219.81l-2,6.38h-13L223.57,2.14h11.2l19,52.61ZM229.21,17.17l-6.47,21.65h12.78Z"/><path class="a" d="M55.48,99a24,24,0,0,1-2.89,7.89,23.25,23.25,0,0,1-5.53,6.43,25.89,25.89,0,0,1-7.89,4.32,29.87,29.87,0,0,1-9.92,1.58,29.69,29.69,0,0,1-11.91-2.26,26.85,26.85,0,0,1-8.86-6,25.76,25.76,0,0,1-5.56-8.83A29.42,29.42,0,0,1,1,91.47,29.09,29.09,0,0,1,2.88,81.1,26.33,26.33,0,0,1,17,66.18a28.08,28.08,0,0,1,11.57-2.29,31.85,31.85,0,0,1,10.86,1.73,25,25,0,0,1,8.11,4.66,21.94,21.94,0,0,1,5.3,6.91,27.47,27.47,0,0,1,2.55,8.49H42.7a14.44,14.44,0,0,0-1.53-4.28A12.77,12.77,0,0,0,38.38,78a12.28,12.28,0,0,0-4-2.29,14.9,14.9,0,0,0-5.07-.83,16,16,0,0,0-6.8,1.39,15.29,15.29,0,0,0-5,3.68,15.84,15.84,0,0,0-3.08,5.3,18.84,18.84,0,0,0-1,6.24A19.08,19.08,0,0,0,14.49,98a15,15,0,0,0,3.23,5.33,15.37,15.37,0,0,0,5.19,3.61,17.48,17.48,0,0,0,7,1.32,12.69,12.69,0,0,0,4.28-.72,14,14,0,0,0,3.72-2,13.21,13.21,0,0,0,2.9-2.93A11.31,11.31,0,0,0,42.55,99Z"/><path class="a" d="M62.84,65.24h22.1a19.52,19.52,0,0,1,7.89,1.55,18.68,18.68,0,0,1,6,4.13,18,18,0,0,1,3.87,6,19.67,19.67,0,0,1,1.36,7.29,19.18,19.18,0,0,1-2.75,10.11,17.4,17.4,0,0,1-7.7,6.88l10.52,16.61H90l-9.31-14.58H75v14.58H62.84ZM83.36,93.36a7.79,7.79,0,0,0,3.45-.76,8.09,8.09,0,0,0,2.67-2,8.84,8.84,0,0,0,1.69-2.89,10.28,10.28,0,0,0,0-6.92,9,9,0,0,0-1.69-2.89,8.09,8.09,0,0,0-2.67-2,7.92,7.92,0,0,0-3.45-.75H75V93.36Z"/><polygon class="a" points="124.16 75.02 124.16 86.97 144.07 86.97 144.07 96.51 124.16 96.51 124.16 108.09 144.07 108.09 144.07 117.86 111.99 117.86 111.99 65.24 144.07 65.24 144.07 75.02 124.16 75.02"/><path class="a" d="M184.72,117.86l-2-6.39H164l-2,6.39H149l18.78-52.62h11.2l19,52.62ZM173.38,80.28l-6.47,21.65h12.78Z"/><polygon class="a" points="206.89 75.77 195.02 75.77 195.02 65.24 231.01 65.24 231.01 75.77 219.06 75.77 219.06 117.86 206.89 117.86 206.89 75.77"/><polygon class="a" points="249.34 75.02 249.34 86.97 269.26 86.97 269.26 96.51 249.34 96.51 249.34 108.09 269.26 108.09 269.26 117.86 237.17 117.86 237.17 65.24 269.26 65.24 269.26 75.02 249.34 75.02"/><path class="a" d="M288.87,100.41a9.22,9.22,0,0,0,2.33,6.69,8.1,8.1,0,0,0,6.09,2.4,7.33,7.33,0,0,0,4.92-1.69,5.58,5.58,0,0,0,2-4.47,5.18,5.18,0,0,0-.64-2.67,6.64,6.64,0,0,0-1.73-1.91,12.21,12.21,0,0,0-2.59-1.47c-1-.42-2.08-.86-3.23-1.31-2.41-.9-4.7-1.81-6.88-2.71A23.16,23.16,0,0,1,283.46,90a14.47,14.47,0,0,1-3.83-4.62,14.21,14.21,0,0,1-1.43-6.69,12.9,12.9,0,0,1,1.54-6.38,14.31,14.31,0,0,1,4.09-4.66,18.33,18.33,0,0,1,5.9-2.82,25.46,25.46,0,0,1,6.95-.94,22.83,22.83,0,0,1,8.19,1.35,16.58,16.58,0,0,1,5.87,3.69,15.36,15.36,0,0,1,3.49,5.33,17.47,17.47,0,0,1,1.17,6.39H303.22a8.39,8.39,0,0,0-1.69-5.56,5.93,5.93,0,0,0-4.85-2,7.5,7.5,0,0,0-4.5,1.35,4.66,4.66,0,0,0-1.88,4.06,5,5,0,0,0,2.06,4.17,20.77,20.77,0,0,0,5.45,2.74c2.15.75,4.33,1.57,6.54,2.44a27.25,27.25,0,0,1,5.94,3.24,16.36,16.36,0,0,1,4.32,4.65,12.51,12.51,0,0,1,1.69,6.65,16.93,16.93,0,0,1-1.47,7.22,14.85,14.85,0,0,1-4.09,5.3,18.3,18.3,0,0,1-6.24,3.23,27.67,27.67,0,0,1-8,1.09,24.41,24.41,0,0,1-7.85-1.24,17.88,17.88,0,0,1-6.31-3.65,16.64,16.64,0,0,1-4.17-5.9,20.1,20.1,0,0,1-1.5-8Z"/><polygon class="a" points="401 54.76 386.33 54.76 386.33 16.81 348.38 16.81 348.38 2.14 401 2.14 401 54.76"/></svg>