<?xml version="1.0" encoding="UTF-8"?> <svg xmlns="http://www.w3.org/2000/svg" viewBox="0 0 93 73" xml:space="preserve"> <style type="text/css"> .st0{fill:#FFFFFF;} </style> <polygon class="st0" points="1.7 50.6 3.5 52.3 6.2 49.7 16.8 60.3 18.6 58.5 7.9 47.9 10.6 45.3 8.8 43.5"></polygon> <polygon class="st0" points="33.2 43.4 27.9 38.1 29.2 36.8 37.2 39.5 39 37.7 29.7 34.6 26.6 25.3 24.8 27.1 27.4 35 26.1 36.3 20.8 31 19.1 32.8 31.5 45.2"></polygon> <polygon class="st0" points="47.4 29.3 45.6 27.5 40.3 32.9 36.8 29.3 40.3 25.8 38.5 24 35 27.5 31.5 24 36.8 18.7 35 16.9 27.9 24 40.3 36.4"></polygon> <path class="st0" d="m48.9 6.5l3.5 3.5-3.5 3.5-3.5-3.5 3.5-3.5zm10.6 0l3.5 3.5-3.5 3.5-3.5-3.4 3.5-3.6zm-5.3 12.4l-3.5-3.5 3.5-3.5 3.5 3.5-3.5 3.5zm0 3.6l10.6-10.6c0.5-0.5 0.7-1.1 0.7-1.8s-0.2-1.3-0.7-1.8l-3.5-3.5c-0.5-0.5-1.1-0.8-1.8-0.8s-1.3 0.2-1.8 0.7l-3.5 3.5-3.5-3.5c-0.5-0.4-1.1-0.7-1.8-0.7s-1.3 0.2-1.8 0.7l-3.5 3.5c-0.5 0.5-0.7 1.1-0.7 1.8s0.2 1.3 0.7 1.8l10.6 10.7z"></path> <path class="st0" d="m50.6 45.2c-0.5-0.5-1.1-0.7-1.8-0.7s-1.3 0.2-1.8 0.7l-3.5 3.5-3.5-3.5 3.5-3.5 1.8 1.8 1.8-1.8-1.8-1.8c-0.5-0.5-1.1-0.7-1.8-0.7s-1.3 0.2-1.8 0.7l-3.5 3.5c-0.5 0.5-0.7 1.1-0.7 1.8s0.2 1.3 0.7 1.8l3.5 3.5c0.5 0.5 1.1 0.7 1.8 0.7s1.3-0.3 1.8-0.7l3.5-3.5 3.5 3.5-3.4 3.5-1.8-1.8-1.8 1.8 1.8 1.8c0.5 0.5 1.1 0.7 1.8 0.7s1.3-0.2 1.8-0.7l3.5-3.5c0.5-0.5 0.7-1.1 0.7-1.8s-0.2-1.3-0.7-1.8l-3.6-3.5z"></path> <polygon class="st0" points="53.5 31.7 51.7 29.9 44.6 37 46.4 38.8 49 36.1 59.7 46.8 61.4 45 50.8 34.4"></polygon> <path class="st0" d="m60 32.3l-3.5-3.5 3.5-3.5 3.5 3.5-3.5 3.5zm0-9.6c-0.7 0-1.3 0.2-1.8 0.7l-3.5 3.6c-0.5 0.5-0.7 1.1-0.7 1.8s0.2 1.3 0.7 1.8l10.6 10.6 1.8-1.8-5.3-5.3 3.5-3.5 5.3 5.3 1.8-1.8-10.7-10.7c-0.5-0.5-1-0.7-1.7-0.7"></path> <polygon class="st0" points="67.9 13.7 76.8 22.6 63.5 18.2 61.7 19.9 74.1 32.3 75.9 30.6 67 21.7 80.3 26.1 82.1 24.4 69.7 12"></polygon> <path class="st0" d="m83.8 19.1l-8.9-8.9 3.5-3.5 8.9 8.9-3.5 3.5zm5.3-5.3l-8.9-8.9c-0.5-0.5-1.1-0.7-1.8-0.7s-1.3 0.2-1.8 0.7l-5.3 5.3 12.4 12.4 5.3-5.3c0.5-0.5 0.7-1.1 0.7-1.8 0.1-0.6-0.1-1.2-0.6-1.7"></path> <path class="st0" d="m17.3 38.2l3.5 3.5-3.5 3.5-3.5-3.5 3.5-3.5zm5.3 15.9l1.8-1.8-5.4-5.3 3.5-3.5 5.3 5.3 1.8-1.8-10.6-10.6c-0.5-0.5-1.1-0.7-1.8-0.7s-1.3 0.2-1.8 0.7l-3.4 3.5c-0.5 0.5-0.7 1.1-0.7 1.8s0.2 1.3 0.7 1.8l10.6 10.6z"></path> <path class="st0" d="m29.8 55.3l3.5 3.5-3.5 3.5-3.5-3.5 3.5-3.5zm5.3 15.9l1.8-1.8-5.3-5.3 3.5-3.5 5.3 5.3 1.8-1.8-10.6-10.6c-0.5-0.5-1.1-0.7-1.8-0.7s-1.3 0.2-1.8 0.7l-3.5 3.5c-0.5 0.5-0.7 1.1-0.7 1.8s0.2 1.3 0.7 1.8l10.6 10.6z"></path> </svg> 